<svg xmlns="http://www.w3.org/2000/svg" viewBox="0 0 132.2 40.7" >
<path  d="M12.2 35.3s.9-.3 2-.3 2 .2 2 .2v-.8s-.9-.2-2-.2-2 .3-2 .3v.8z" fill="none" stroke="#a4906c" stroke-width=".11"></path>
<path  d="M14 40.5l11.8-9.9s1.1-1 1.6-2 .8-1.9.8-3V3.3s-2 1-7.1.3C16.8 3.1 14 .2 14 .2M14 38l6.2-5.2 3.9-3.3s.9-.7 1.5-1.8.8-2.6.8-2.6V5.6s-2.5.4-6.5-.2C16 4.8 14 2.7 14 2.7m.2 20.5h-1V22l-.9-.7-2.4.4v1.8l-1.3.2-.3-1-1-.3-2.3 1 1.7 4.3 1.4 1.4V33m6.1-4.7c3.3 0 6 .8 6 .8m-12.1 0s2.8-.8 6.1-.8m-8.1-2.2s3.7-1.3 8.1-1.3m0 0c4.4 0 8.1 1.3 8.1 1.3m-7.1.9v-1.2l-1-.8-.9.8V27h1.9zm0 0l.9.7m-2.8-.7l-1 .7m-1.1-.5L11 26l-1.1-.6-.8.9.2 1.2 1.9-.3zm-1.9.3l-.9.9.1.6m2.7-1.8l1.1.6.1.6m-1.9.2l-.2-1.2m6.8-.2l.2-1.2 1.1-.6.8.9-.2 1.2-1.9-.3zm1.9.3l.9.9-.1.6m-2.7-1.8l-1.1.6-.1.6m2 .2l.2-1.2m-5.9 8.8v-3.7l2-2 2 2v3.7m-4-1.8s1-.3 2-.3m-2-1.6s.9-.2 2-.2m0 1.8c1.1 0 2 .2 2 .2m-2 .7c1.1 0 2 .2 2 .2m-4 .1s.9-.3 2-.3m0-2.8c1.1 0 2 .2 2 .2" fill="none" stroke="#a4906c" stroke-width=".6"></path>
<path style="fill: #a4906c;" d="M4.4 29.2s-.9-.6-1.4-1.7c-.6-1.1-.7-2.6-.7-2.6V5.6s2 .5 6 0c3.7-.5 5.9-2.3 6-2.3V0s-2.5 2.5-6.9 3.1C2 3.7 0 2.7 0 2.7v23s.2 1.8.8 3.1c.7 1.3 1.7 2.1 1.7 2.1l11.7 9.8v-3.2l-9.8-8.3z"></path><path fill="#a4906c" d="M8.2 8.4l-2.8 5.5 2.8 5.5 2.5-5.5zM19.9 5.4c-3.7-.5-5.7-2.5-5.7-2.5v20.6h1.3v-1.4l.7-.5 2 .3v1.8l1.8.3.3-1.2.8-.2 1.9.8-1.6 4-1.4 1.4v4.1l.3-.3 3.9-3.4s.9-.8 1.4-1.9c.6-1.1.7-2.6.7-2.6V5.6s-2 .4-6.4-.2zm.3 1.6s-.6.4-.6 0 .6 0 .6 0zm-.9 2.1l-.2-.4-.5.1c.5-.5.7-2 .7-2s.2 1.5.7 2l-.5-.1-.2.4zm.2 5.8c-.3 0 0-.6 0-.6s.4.6 0 .6zm-.2-8.8s.4.6 0 .6 0-.6 0-.6zm-.8 5s-.6.3-.6 0 .6 0 .6 0zm-.8 1.9l-.2-.3-.4.1c.5-.4.6-1.8.6-1.8s.2 1.4.6 1.8l-.4-.1-.2.3zm0 6c-.3 0 0-.6 0-.6s.4.6 0 .6zm0-8.7s.3.6 0 .6 0-.6 0-.6zm-1-3.2s-.6.3-.6 0c0-.4.6 0 .6 0zm-.9 1.8l-.2-.3-.4.1c.5-.4.6-1.8.6-1.8s.2 1.4.6 1.8l-.4-.1-.2.3zm.1 6c-.3 0 0-.6 0-.6s.3.6 0 .6zm-.1-8.7s.3.6 0 .6 0-.6 0-.6zm-.3.9c0 .3-.6 0-.6 0s.6-.4.6 0zm.1 8.1c0 .3-.6 0-.6 0s.6-.3.6 0zm.5 1.6l-.2.3-.2-.3-.4.1c.5-.4.6-1.8.6-1.8s.2 1.4.6 1.8l-.4-.1zm0-1.6c0-.3.6 0 .6 0s-.6.4-.6 0zm1.3-4.1c0 .3-.6 0-.6 0s.6-.3.6 0zm0 8.2c0 .3-.6 0-.6 0s.6-.3.6 0zm.5 1.6l-.2.3-.2-.3-.4.1c.5-.4.6-1.8.6-1.8s.2 1.4.6 1.8l-.4-.1zm.1-1.6c0-.3.6 0 .6 0s-.6.3-.6 0zM19 7c0 .4-.6 0-.6 0s.6-.4.6 0zm.3 8.2c0 .3-.6 0-.6 0s.6-.3.6 0zm.4 1.6l-.2.3-.2-.3-.4.1c.5-.4.6-1.8.6-1.8s.2 1.4.6 1.8l-.4-.1zm.1-1.6c0-.3.6 0 .6 0s-.6.4-.6 0zm4.4-8.1s-.6.3-.6 0c0-.4.6 0 .6 0zM24 8.7l-.4-.1-.2.3-.2-.3-.5.1c.5-.4.6-1.8.6-1.8s.2 1.4.7 1.8zm-.8 6.2c-.3 0 0-.6 0-.6s.3.6 0 .6zm.1-8.7s.3.6 0 .6 0-.6 0-.6zm-1.1 4.9s-.6.3-.6 0 .6 0 .6 0zm-.9 1.9l-.2-.3-.4.1c.5-.4.6-1.8.6-1.8s.2 1.4.6 1.8l-.4-.1-.2.3zm.1 6c-.3 0 0-.6 0-.6s.3.6 0 .6zm-.1-8.7s.3.6 0 .6 0-.6 0-.6zm-.2.8c0 .3-.6 0-.6 0s.6-.3.6 0zm0 8.2c0 .3-.6 0-.6 0s.6-.3.6 0zm.5 1.6l-.2.3-.2-.3-.4.1c.5-.4.6-1.8.6-1.8s.2 1.4.6 1.8l-.4-.1zm.1-1.6c0-.3.6 0 .6 0s-.6.3-.6 0zM23 7.1c0 .3-.6 0-.6 0s.6-.4.6 0zm-.1 8.1c0 .3-.6 0-.6 0s.6-.3.6 0zm.5 1.6l-.2.3-.2-.3-.4.1c.5-.4.6-1.8.6-1.8s.2 1.4.6 1.8l-.4-.1zm.1-1.6c0-.3.6 0 .6 0s-.6.4-.6 0zm2.4-4.1s-.6.3-.6 0 .6 0 .6 0zM25 13l-.2-.3-.4.1c.5-.4.6-1.8.6-1.8s.2 1.4.6 1.8l-.4-.1-.2.3zm.1 6c-.3 0 0-.6 0-.6s.3.6 0 .6zm-.1-8.7s.3.6 0 .6 0-.6 0-.6zm-.3.8c0 .3-.6 0-.6 0s.6-.3.6 0zm.1 8.2c0 .3-.6 0-.6 0s.6-.3.6 0zm.5 1.6l-.2.3-.2-.3-.4.1c.5-.4.6-1.8.6-1.8s.2 1.4.6 1.8l-.4-.1zm0-1.6c0-.3.6 0 .6 0s-.6.3-.6 0zM41.2 18.9l-3.5-7.2-.4 6.1c0 .7.5.8 1.1.9v.3h-2.8v-.3c1 0 1.1-.2 1.2-1.5l.3-5.3c.1-.9 0-1.1-.8-1.2v-.2h2.1l3.3 6.9 3.3-6.9h2v.2c-.7.1-.9.1-.9.5l.4 6.2c.1 1.3.2 1.3 1.2 1.3v.3h-3.5v-.3c.6 0 1.3-.2 1.2-.9l-.5-6.1-3.4 7.3-.3-.1zM54.8 14.6h-2.4l1.2-3.2 1.2 3.2zm.2.6l.9 2.5c.1.1.2.3.2.6 0 .4-.3.5-1.1.5h-.4v.3h3.7v-.4c-.7 0-1-.1-1.2-.9l-2.8-7.6h-1.2l.1.3-2.5 6.8c-.4 1.2-.6 1.3-1.5 1.3v.3h3.1v-.2h-.2c-.7 0-1.1-.1-1.1-.5 0-.2.2-.6.3-.9l.8-2.1H55zM67.3 12.7c-.4-1.3-1.6-2.1-3.1-2.1-2.3 0-3.7 1.6-3.7 3.9 0 2.5 1.8 4.3 3.8 4.3 1.1 0 2.4-.4 3.3-2h.3c-.2.6-.5 1.5-.9 2-.9-.1-1.5.4-3.1.4-2.8 0-4.8-1.8-4.8-4.3 0-2.6 2-4.5 4.9-4.5 1.7 0 2.5.5 2.9.5.2 0 .2 0 .2-.1h.2l.1 2-.1-.1zM71.9 10.7c.2 0 .5-.1 1.1-.1 1.9 0 2.9.5 3.5 1.1.8.8 1.1 1.9 1.1 2.9 0 1.4-.6 2.5-1.1 2.9-.8.8-1.6 1.1-3.4 1.1-1.1 0-1.1-.2-1.1-.7l-.1-7.2zm-1.2 7c0 .8-.3 1-1.1 1h-.2v.3h4.4c3.5 0 5-2.5 5-4.5 0-2.3-1.6-4.1-5.2-4.1h-2.3c-.8 0-1.4.1-1.9.1v.2h.3c.8 0 1 .2 1 1.1v5.9zM89.6 14.9c0 1.9-1.1 3.9-3.3 3.9-2.2 0-3.9-1.8-3.9-4.3 0-1.6 1-3.9 3.3-3.9s3.9 1.8 3.9 4.3zm1.3-.4c0-2.5-2.2-4.2-4.8-4.2-2.9 0-5 1.9-5 4.6 0 2.5 2.2 4.3 4.9 4.3s4.9-2 4.9-4.7zM101.7 19l-7.1-7.4v5.8c0 1 .2 1.2 1.4 1.2v.3h-3.2v-.2h.1c.8 0 1.1-.3 1.1-.9v-6.7c-.3-.2-.7-.3-1.1-.3v-.3H95l6.4 6.7v-5.5c0-.8-.2-1-1.3-1v-.3h3.2v.3c-1 0-1.2.2-1.2.7V19h-.4zM109.6 14.6h-2.4l1.2-3.2 1.2 3.2zm.3.6l.9 2.5c.1.1.1.3.1.6 0 .4-.3.5-1.1.5h-.4v.3h3.7v-.4c-.7 0-1-.1-1.2-.9l-2.8-7.6h-1.2l.1.3-2.5 6.8c-.4 1.2-.6 1.3-1.5 1.3v.3h3.1v-.2h-.2c-.7 0-1.1-.1-1.1-.5 0-.2.2-.6.3-.9l.8-2.1h3zM120.5 18.9h-6.1v-.2h.4c.6 0 .9-.2.9-.9v-6c0-.7-.2-1-1.1-1h-.2v-.3h4v.2h-.5c-.9 0-1.1.1-1.1.9v6.3c0 .4.1.5.5.5h2c.8 0 1-.3 1.9-1.5h.2l-.9 2zM125.1 10.7c.2 0 .5-.1 1.1-.1 1.9 0 2.9.5 3.5 1.1.8.8 1.1 1.9 1.1 2.9 0 1.4-.6 2.5-1.1 2.9-.8.8-1.6 1.1-3.4 1.1-1.1 0-1.1-.2-1.1-.7v-7.2h-.1zm-1.1 7c0 .8-.3 1-1.1 1h-.2v.3h4.4c3.5 0 5-2.5 5-4.5 0-2.3-1.6-4.1-5.2-4.1h-2.3c-.8 0-1.4.1-1.9.1v.2h.3c.8 0 1 .2 1 1.1v5.9zM37 27.8v1.6c0 .5.1.7.7.7v.2h-2.1v-.2c.5 0 .6-.1.6-.6v-3.6c0-.4-.1-.6-.6-.6v-.2h2v.2c-.6 0-.7.2-.7.8v1.4h3.2v-1.6c0-.4-.1-.6-.7-.6h-.2v-.2h2.1v.2c-.5 0-.6.2-.6.7v3.4c0 .6.2.7.7.7h.1v.2h-2.3v-.2h.3c.5 0 .7-.2.7-.6v-1.7H37zM46.2 30.4c-1.6 0-3-1-3-2.6s1.3-2.8 3-2.8c1.6 0 2.9 1.1 2.9 2.5 0 1.7-1.3 2.9-2.9 2.9zm-.2-5.2c-1.4 0-2 1.3-2 2.3 0 1.5 1 2.6 2.4 2.6 1.3 0 2-1.2 2-2.3-.1-1.5-1-2.6-2.4-2.6zM53.3 29.5c0 .4.1.6.6.6h.3v.2h-2.5v-.2h.3c.5 0 .6-.2.6-.6v-4.1h-1.4c-.3 0-.5.2-.6.9h-.1l.1-1.3h.2s0 .1.1.1h4.2c.1 0 .2 0 .3-.1h.2l.1 1.3h-.1c-.1-.7-.3-.9-.6-.9h-1.4v4.1h-.3zM60.9 28.4h-.2c0-.6-.2-.7-.5-.7h-1.4v1.7c0 .4.1.5.4.5h1.3c.6 0 .7-.2 1-.9h.1l-.1 1.2h-4.4V30h.2c.7 0 .8-.2.8-.7v-3.5c0-.5-.1-.7-.7-.7h-.2v-.2h3.9l.1 1.1h-.1c-.1-.7-.3-.8-.6-.8h-1.7v2h1.5c.3 0 .4-.1.5-.6h.2v1.8h-.1zM67.2 30.2h-3.7V30h.3c.4 0 .5-.1.5-.5v-3.6c0-.4-.1-.6-.6-.6h-.1v-.2H66v.2h-.3c-.5 0-.7.1-.7.6v3.8c0 .2.1.3.3.3h1.2c.5 0 .6-.2 1.1-.9h.1l-.5 1.1zM69.7 29c.2.7.7 1.2 1.4 1.2.6 0 1.1-.3 1.1-1 0-1.2-2.6-1.5-2.6-3 0-.7.6-1.2 1.5-1.2.7 0 .8.2 1.1.2.1 0 .1 0 .1-.1h.1l.1 1h-.1c-.2-.6-.8-1-1.3-1s-.9.3-.9.8c0 1.2 2.6 1.5 2.6 3 0 .8-.7 1.4-1.7 1.4-.5 0-1-.2-1.1-.2s-.1 0-.2.1h-.1l-.2-1.2h.2zM83.8 26.8c-.5.1-.6.1-.7.3-.2.2-.6 1-1.2 1.8.5.7.6 1.2 1 1.2.2 0 .4-.1.6-.3l.1.1c-.4.3-.7.4-1 .4-.5 0-.7-.2-1.1-1-.6.6-1.3 1-1.9 1-.7 0-1.3-.6-1.3-1.4 0-.7.4-1.1 1.4-1.5-.4-.3-.6-.7-.6-1.1 0-.6.4-1 1.1-1 .6 0 1 .3 1 .8 0 .4-.3.7-.9 1 .5.4 1 .9 1.4 1.5.4-.5 1-1.4 1-1.6 0-.1-.1-.2-.5-.2v-.1l1.6.1zm-3.9 3.1c.5 0 1.1-.3 1.4-.7-.4-.6-.9-1.1-1.6-1.6-.6.4-.9.8-.9 1.3.1.6.5 1 1.1 1zm.3-4.3c-.3 0-.5.2-.5.6 0 .3.2.7.6 1 .4-.2.5-.5.5-.9s-.3-.7-.6-.7zM90 29.5c0 .5.2.6.7.6h.2v.2h-2.3v-.2h.1c.5 0 .7-.1.7-.7v-3.5c0-.5-.1-.7-.6-.7h-.2V25h2c1.5 0 2.2.6 2.2 1.5 0 .6-.4 1.1-1.1 1.3.3.2.5.5.9.9l.6.6c.5.5 1 .8 1.6.8v.1c-1.4.1-1.8-.2-2.5-1l-.5-.5c-.4-.4-.7-.6-.8-.7h-1v1.5zm0-1.6h.5c.9 0 1.5-.4 1.5-1.4 0-.8-.3-1.4-1.6-1.4H90v2.8zM99.9 28.4h-.2c-.1-.6-.2-.6-.6-.6h-1.4v1.7c0 .4.1.5.4.5h1.3c.6 0 .7-.2 1-.9h.2l-.1 1.2h-4.4v-.2h.2c.7 0 .8-.2.8-.7v-3.5c0-.5-.1-.7-.7-.7h-.2V25h3.9l.1 1.1h-.2c-.1-.7-.3-.8-.6-.8h-1.7v2h1.5c.3 0 .4-.1.5-.6h.2v1.7zM102.8 29c.2.7.7 1.2 1.4 1.2.6 0 1.1-.3 1.1-1 0-1.2-2.6-1.5-2.6-3 0-.7.6-1.2 1.5-1.2.7 0 .8.2 1.1.2.1 0 .1 0 .1-.1h.1l.1 1h-.1c-.2-.6-.8-1-1.3-1s-.9.3-.9.8c0 1.2 2.6 1.5 2.6 3 0 .8-.7 1.4-1.7 1.4-.5 0-1-.2-1.1-.2s-.1 0-.2.1h-.1l-.2-1.2h.2zM110.6 30.4c-1.6 0-3-1-3-2.6s1.3-2.8 3-2.8c1.6 0 2.9 1.1 2.9 2.5.1 1.7-1.3 2.9-2.9 2.9zm-.1-5.2c-1.4 0-2 1.3-2 2.3 0 1.5 1 2.6 2.4 2.6 1.3 0 2-1.2 2-2.3-.1-1.5-1.1-2.6-2.4-2.6zM116.6 29.5c0 .5.2.6.7.6h.2v.2h-2.3v-.2h.1c.5 0 .7-.1.7-.7v-3.5c0-.5-.1-.7-.6-.7h-.2V25h2c1.5 0 2.2.6 2.2 1.5 0 .6-.4 1.1-1.1 1.3.3.2.6.5.9.9l.6.6c.5.5 1 .8 1.6.8v.1c-1.4.1-1.8-.2-2.5-1l-.5-.5c-.4-.4-.6-.6-.8-.7h-1v1.5zm0-1.6h.5c.9 0 1.5-.4 1.5-1.4 0-.8-.3-1.4-1.6-1.4h-.4v2.8zM124.9 29.5c0 .4.1.6.6.6h.3v.2h-2.6v-.2h.3c.5 0 .6-.2.6-.6v-4.1h-1.4c-.3 0-.5.2-.6.9h-.2l.1-1.3h.2s0 .1.1.1h4.1c.1 0 .2 0 .3-.1h.2l.1 1.3h-.2c-.1-.7-.3-.9-.6-.9h-1.4l.1 4.1zM129 29c.2.7.7 1.2 1.4 1.2.6 0 1.1-.3 1.1-1 0-1.2-2.6-1.5-2.6-3 0-.7.6-1.2 1.5-1.2.7 0 .8.2 1.1.2.1 0 .1 0 .2-.1h.1l.1 1h-.1c-.2-.6-.8-1-1.3-1s-.9.3-.9.8c0 1.2 2.6 1.5 2.6 3 0 .8-.7 1.4-1.7 1.4-.5 0-1-.2-1.1-.2s-.1 0-.2.1h-.1L129 29z"></path></svg>
       