<svg width="642" height="482" xmlns="http://www.w3.org/2000/svg">
 <defs>
  <style type="text/css">.land
			{
				fill: #CCCCCC;
				fill-opacity: 1;
				stroke:white;
				stroke-opacity: 1;
				stroke-width:0.5;
			}</style>
  <!-- All areas are listed in the line below. You can use this list in your script. -->
  <!--{id:"GB-UKC"},{id:"GB-UKD"},{id:"GB-UKE"},{id:"GB-UKF"},{id:"GB-UKG"},{id:"GB-UKH"},{id:"GB-UKI"},{id:"GB-UKJ"},{id:"GB-UKK"},{id:"GB-UKL"},{id:"GB-UKM"},{id:"GB-UKN"},{id:"GG"},{id:"JE"},{id:"IM"},{id:"IE"}-->
 </defs>
 <g>
  <title>background</title>
  <rect fill="none" id="canvas_background" height="484" width="644" y="-1" x="-1"/>
 </g>
 <g>
  <title>Layer 1</title>
  <text transform="matrix(1,0,0,1,0,0) " xml:space="preserve" text-anchor="start" font-family="Helvetica, Arial, sans-serif" font-size="9" id="svg_21" y="240.558184" x="275.993768" fill-opacity="null" stroke-opacity="null" stroke-width="0" stroke="null" fill="#000000">• Queenwood</text>
  <text transform="matrix(1,0,0,1,0,0) " font-weight="bold" xml:space="preserve" text-anchor="start" font-family="Helvetica, Arial, sans-serif" font-size="9" id="svg_22" y="179.224846" x="230.215986" fill-opacity="null" stroke-opacity="null" stroke-width="0" stroke="null" fill="#000000">M25</text>
  <text transform="matrix(1,0,0,1,0,0) " xml:space="preserve" text-anchor="start" font-family="Helvetica, Arial, sans-serif" font-size="9" id="svg_23" y="214.33596" x="211.104874" fill-opacity="null" stroke-opacity="null" stroke-width="0" stroke="null" fill="#000000">• Gatwick</text>
  <path stroke="null" d="m354.228359,13.498431l4.802351,-2.130075l4.027778,6.235311l15.026712,6.157853l6.428954,4.376336l4.066507,4.802351l0.968216,2.28499l-0.116186,7.590813l5.499467,9.37233l-0.890759,6.390225l1.394231,9.604702l1.045673,3.214477l3.253206,3.175748l0.387286,7.319713l-2.439904,5.770567l-10.80529,6.932426l0.232372,5.034723l-1.161859,5.267095l-1.394231,1.665331l-3.253206,0.154915l-0.077457,6.467683l2.749733,4.686165l0.58093,4.918537l4.763622,0.619658l2.439904,2.28499l6.506411,0.193643l3.834135,5.073452l2.943376,1.742789l17.892631,1.355502l4.415065,3.485577l3.485577,6.428954l-4.802351,4.182693l-2.827191,8.481572l-8.597758,4.531251l-5.538195,10.495461l3.795407,3.756678l7.048612,2.633547l1.161859,7.087341l3.563035,0.464744l2.827191,-3.369392l1.587874,2.711005l3.330663,0.193643l0.58093,2.633547l9.178687,11.502406l-0.58093,3.795407l-4.415065,2.749733l3.330663,6.777512l-0.735844,6.506411l5.576924,2.091346l4.531251,5.886753l15.413998,6.854969l2.594819,3.098291l1.665331,4.337607l20.332535,10.727833l10.379275,17.35043l5.848024,3.330663l4.957266,11.153848l3.872864,7.319713l0.348558,3.485577l-3.13702,3.175748l-10.340546,3.485577l-3.214477,2.517361l1.549146,2.788462l6.661326,1.549146l1.123131,1.626603l-4.298879,6.119125l3.020834,3.214477l0.154915,7.280984l-11.463677,7.164798l0.116186,2.246261l3.98905,4.84108l-0.697115,3.446849l-10.80529,4.569979l-2.865919,3.291934l-0.735844,2.982105l0,0l-2.439904,3.020834l-1.549146,5.731838l-6.390225,5.228366l4.453793,4.453793l-1.316774,2.943376l-4.298879,1.084402l-5.576924,-5.11218l-3.679221,-0.348558l-2.28499,0.464744l0.232372,4.647437l-0.813301,0.697115l-5.925482,0.735844l-0.929487,3.834135l-4.027778,5.11218l-0.077457,6.506411l-2.788462,13.593752l-1.626603,3.214477l-5.460738,1.161859l-0.85203,4.995994l-7.203527,0.619658l-1.43296,3.679221l-2.091346,0.2711l-9.643431,-9.333602l0,0l0.116186,-1.665331l3.524306,-3.834135l4.337607,-8.210471l-1.742789,-1.239316l-7.203527,1.161859l-3.40812,-1.355502l-6.390225,-10.998933l-1.820246,-6.351497l-4.182693,-1.43296l-4.143964,-5.267095l-4.066507,2.207532l-7.048612,9.68216l-5.809296,-1.355502l-4.027778,3.330663l-0.154915,1.43296l3.098291,1.587874l4.143964,6.080396l0.464744,4.84108l-1.316774,3.640492l-2.323718,0.116186l-6.971155,-6.54514l-5.034723,-1.045673l-2.865919,1.43296l-4.686165,-1.084402l-5.69311,1.316774l-11.889692,8.404114l-8.094285,-2.478633l-6.777512,0l-4.802351,3.98905l-2.633547,-3.524306l5.615653,-11.541134l-9.875803,0.503472l-1.161859,2.168804l-1.161859,8.5203l3.291934,3.98905l-2.943376,2.323718l-6.622597,-1.006945l-5.189638,8.597758l-3.485577,0.426015l-11.115119,-3.485577l-2.28499,-6.041668l-4.453793,-7.242255l-5.383281,0.890759l-4.879808,5.615653l-3.911592,1.70406l-3.253206,-1.626603l-2.362447,-6.041668l-3.834135,-2.091346l-2.28499,7.242255l0.929487,3.40812l-2.246261,3.756678l-0.503472,5.422009l4.182693,3.330663l1.123131,5.69311l4.143964,4.647437l0.58093,3.834135l-0.697115,2.207532l-7.126069,4.453793l-7.048612,0.890759l-2.749733,6.777512l-6.119125,-0.890759l-5.576924,2.323718l-1.355502,3.098291l-2.517361,-0.619658l-4.337607,2.865919l-1.858975,-5.073452l-1.355502,0l-1.161859,2.013889l-1.084402,8.016828l0,0l-2.168804,2.362447l-1.278045,-2.788462l-3.446849,-0.735844l-3.098291,-4.337607l-7.823185,0l-5.848024,-8.636486l-0.116186,-2.478633l-2.246261,-3.756678l-8.365386,-5.073452l-9.062501,-8.752672l-5.770567,0.813301l-9.604702,6.312768l-3.40812,-0.968216l-1.278045,-3.13702l-4.221422,-1.936432l-1.123131,-5.731838l-6.81624,-6.390225l-4.492522,-6.428954l-7.009883,-12.50935l1.510417,-4.376336l-0.619658,-3.485577l-6.002939,-7.358441l-2.943376,-0.348558l2.28499,-8.907587l2.28499,-3.717949l0.85203,-0.890759l-5.383281,-2.323718l-0.503472,-2.323718l10.727833,-6.81624l0.58093,-2.246261l-0.658387,-0.890759l-5.654381,1.161859l-1.587874,-1.510417l-0.232372,-2.323718l10.340546,-15.801284l1.316774,-5.189638l5.189638,-3.601763l3.13702,-4.298879l11.734777,-1.897703l0.2711,-1.355502l-1.278045,-1.626603l-6.235311,-1.70406l-2.130075,-3.679221l1.742789,-7.474627l7.009883,-4.647437l0.735844,-2.439904l-0.813301,-2.943376l-3.601763,-1.665331l-9.217416,1.975161l-9.10123,-1.510417l-7.164798,-7.66827l-7.203527,-4.957266l-5.189638,-6.390225l-5.886753,-2.168804l-2.594819,-3.253206l-1.006945,-3.601763l0,-6.390225l3.601763,-5.228366l9.256145,-3.601763l8.094285,-5.267095l15.723827,-0.813301l1.936432,-5.422009l5.615653,-1.781517l3.369392,-7.435899l-1.278045,-2.982105l-5.96421,-6.041668l-11.347491,7.66827l-3.640492,5.615653l-4.686165,1.006945l-1.820246,-1.006945l2.246261,-5.422009l-3.40812,-6.700054l0.154915,-5.228366l8.675215,-6.157853l1.665331,-2.904648l1.626603,-9.256145l6.893698,-4.879808l0.619658,-2.633547l-1.316774,-6.81624l4.298879,-9.604702l8.365386,-1.43296l2.55609,-3.485577l-0.232372,-1.975161l-6.971155,-4.105236l-1.742789,-4.066507l-11.463677,-2.633547l-1.820246,-1.471688l-1.471688,-3.640492l-7.629542,-1.006945l-3.524306,-1.43296l-1.820246,-2.478633l-2.982105,-8.365386l0.890759,-3.911592l6.390225,-7.280984l-2.478633,-8.907587l6.932426,-3.563035l1.43296,-6.196582l4.84108,-4.221422l1.239316,0.464744l12.896636,-9.565974l6.196582,0.2711l6.81624,6.583868l9.759617,-3.020834l5.073452,0.735844l13.94231,13.477566l6.622597,-5.267095l6.002939,-0.813301l0.542201,-9.488516l-2.130075,-6.738783l0,0l20.836007,-6.351497l6.583868,2.943376l2.323718,7.66827l3.911592,-0.929487l6.119125,3.020834l2.865919,-4.724894l6.738783,2.439904l5.848024,-0.890759l3.679221,-2.672276l1.43296,-4.453793l8.907587,-3.640492l2.439904,-3.485577l-1.471688,-12.160792l1.587874,-4.957266l6.041668,-1.278045l5.925482,-7.590813l6.622597,0.542201l5.11218,-2.091346l17.62153,-20.990922l4.569979,-0.929487l0.774573,-2.478633l-1.820246,-4.027778l0.387286,-1.278045l2.594819,-0.348558l4.608708,3.020834l6.622597,0l7.474627,-6.235311l4.995994,-0.464744l5.69311,-7.048612z" class="land" id="svg_24"/>
  <text xml:space="preserve" text-anchor="start" font-family="Helvetica, Arial, sans-serif" font-size="32" id="svg_25" y="354.071833" x="417.615562" fill-opacity="null" stroke-opacity="null" stroke-width="0" stroke="null" fill="#000000">• Queenwood</text>
  <text font-weight="bold" xml:space="preserve" text-anchor="start" font-family="Helvetica, Arial, sans-serif" font-size="32" id="svg_26" y="108.413951" x="291.297141" fill-opacity="null" stroke-opacity="null" stroke-width="0" stroke="null" fill="#000000">M25</text>
  <text xml:space="preserve" text-anchor="start" font-family="Helvetica, Arial, sans-serif" font-size="32" id="svg_27" y="259.741422" x="224.077863" fill-opacity="null" stroke-opacity="null" stroke-width="0" stroke="null" fill="#000000">• Gatwick</text>
 </g>
</svg>