<?xml version="1.0" encoding="utf-8"?>
<!-- Generator: Adobe Illustrator 21.0.2, SVG Export Plug-In . SVG Version: 6.00 Build 0)  -->
<svg version="1.1" id="Layer_1" xmlns="http://www.w3.org/2000/svg" xmlns:xlink="http://www.w3.org/1999/xlink" x="0px" y="0px"
	 viewBox="0 0 595.3 841.9" style="enable-background:new 0 0 595.3 841.9;" xml:space="preserve">
<style type="text/css">
	.st0{fill:#FFFFFF;}
	.st1{clip-path:url(#SVGID_2_);fill:#DEA42E;}
</style>
<path class="st0" d="M192.4,415.2c-0.2,0.1-0.3,0.2-0.5,0.2C192.1,415.3,192.2,415.3,192.4,415.2
	C192.4,415.2,192.4,415.2,192.4,415.2"/>
<path class="st0" d="M192.3,408.8C192.3,408.7,192.3,408.7,192.3,408.8C192.3,408.7,192.3,408.7,192.3,408.8
	C192.3,408.7,192.3,408.8,192.3,408.8"/>
<path class="st0" d="M329.1,424.3C329.1,424.3,329.1,424.3,329.1,424.3C329.1,424.3,329.1,424.3,329.1,424.3
	C329.1,424.3,329.1,424.3,329.1,424.3"/>
<polyline class="st0" points="354.7,394.3 354.7,394.3 354.7,394.3 354.7,394.3 "/>
<path class="st0" d="M344.6,461.5c0,0.5-0.1,1.2-0.1,2.5C344.5,463.3,344.6,462.3,344.6,461.5"/>
<path class="st0" d="M334.3,420.9C334.3,421,334.2,421,334.3,420.9c-0.1,0,0.3,0.1,0.6,0.3C334.8,421.1,334.5,421,334.3,420.9"/>
<path class="st0" d="M328.7,424.2c0,0,0.2,0.1,0.3,0.2c0,0,0,0,0,0c-0.1-0.1-0.2-0.1-0.2-0.2C328.8,424.1,328.7,424.2,328.7,424.2"
	/>
<path class="st0" d="M360.5,392c0.1,0,0.2-0.1,0.2-0.1C360.6,391.9,360.6,391.9,360.5,392"/>
<path class="st0" d="M257.4,412.5c-0.4-0.7-0.8-1.4-1.2-2.1C256.6,411.1,257.1,411.8,257.4,412.5"/>
<g>
	<defs>
		<path id="SVGID_1_" d="M182.9,411.9c-0.3,0.2-1,0.5-1.3,0.9c-0.3,0.5-0.4,1,0.4,1.3c0.8,0.3,9.5,1.1,9.5,1.1s0.5-0.8,0.7-1.8
			c0.3-1-0.2-2.4-0.2-2.4s-1.2,0.6-1.6,0.8c-0.4,0.2-1.7,0.9-2.3,0.9c-0.6,0-0.9-0.2-0.9-0.2l1.6-0.5l0.4,0.1c0,0-0.2-0.3-0.8-0.5
			c-0.2-0.1-0.3-0.1-0.4-0.2c-0.2-0.1-0.3-0.1-0.3-0.2c-1.7,0.5-3.8,0.5-4.7,0.5C183,411.8,183,411.8,182.9,411.9"/>
	</defs>
	<use xlink:href="#SVGID_1_"  style="overflow:visible;fill:#FFFFFF;"/>
	<clipPath id="SVGID_2_">
		<use xlink:href="#SVGID_1_"  style="overflow:visible;"/>
	</clipPath>
	<path class="st1" d="M182.9,411.9c-0.3,0.2-1,0.5-1.3,0.9c-0.3,0.5-0.4,1,0.4,1.3c0.8,0.3,9.5,1.1,9.5,1.1s0.5-0.8,0.7-1.8
		c0.3-1-0.2-2.4-0.2-2.4s-1.2,0.6-1.6,0.8c-0.4,0.2-1.7,0.9-2.3,0.9c-0.6,0-0.9-0.2-0.9-0.2l1.6-0.5l0.4,0.1c0,0-0.2-0.3-0.8-0.5
		c-0.2-0.1-0.3-0.1-0.4-0.2c-0.2-0.1-0.3-0.1-0.3-0.2c-1.7,0.5-3.8,0.5-4.7,0.5C183,411.8,183,411.8,182.9,411.9"/>
</g>
<path d="M192.8,415c0.4-0.2,0.8-0.6,1.1-0.9c0.3-0.3,0.6-1.1,1.3-1.6c0.3-0.2,1-0.5,1-0.5s0.3,0.4,0.8,0.4c0.5,0.1,0.8-0.4,0.8-0.4
	s-0.3-0.4-0.7-0.5c-0.3-0.1-0.6,0-1.1,0c-0.2,0-0.6,0-0.8-0.1c-0.1,0-1.1-0.8-1.6-1.4c-0.5-0.7-1.4-1-1.3-1.2c0,0,0,0,0,0
	c0,0,0-0.1,0-0.1c0.1-0.3,0.3-0.4,0.3-0.4s0,0,0,0c0,0,0,0-0.1,0c-0.2,0-0.7,0-1.1,0c-0.4,0-2.3,0.2-3.3,0.9c-1,0.6-0.6,2.2-0.6,2.2
	s0,0,0.1,0c0.1,0,0.2,0.1,0.3,0.2c0.1,0.1,0.3,0.1,0.4,0.2c0.5,0.2,0.8,0.5,0.8,0.5l-0.4-0.1l-1.6,0.5c0,0,0.3,0.2,0.9,0.2
	c0.6,0,1.9-0.7,2.3-0.9c0.4-0.2,1.6-0.8,1.6-0.8s0.5,1.5,0.2,2.4c-0.3,1-0.7,1.8-0.7,1.8s-8.7-0.8-9.5-1.1c-0.8-0.3-0.7-0.8-0.4-1.3
	c0.3-0.5,1-0.8,1.3-0.9c0.1,0,0.1-0.1,0.1-0.2c-0.1-0.2-0.5-0.4-0.8-0.4c-0.5-0.1-1.8,0.5-1.9,1.4c-0.1,0.5,0.3,1.2,1,1.6
	c0.7,0.4,9.4,1.2,10.1,1.2c0.2,0,0.4,0,0.6-0.1c0.2-0.1,0.3-0.1,0.5-0.2C192.5,415.1,192.7,415.1,192.8,415"/>
<path class="st0" d="M344.6,461.1C344.6,461,344.6,461,344.6,461.1c0,0.1,0,0.3,0,0.4C344.6,461.3,344.6,461.2,344.6,461.1"/>
<path class="st0" d="M354.7,394.3c0.9-0.7,5-4,5.5-4.5c4.1-4,3.8-9.9,2.8-9.9c-0.5,0-1.2,1.2-2.7,2.3c-1.7,1.2-5.3,2.5-5.3,2.5
	s4.4-4.8,4.8-5.4c5-6.8,5.7-12,4-10.8c-1.6,1.1-5.9,5.3-5.9,5.3s2.5-3.8,3.5-6.3c0.5-1.3,2.8-8.2,0.5-8.3c-1.1,0-4.8,4.4-6,5.2
	c4-8.8,5.4-16.5,0.9-12.1l-2.4,3.8l-0.4,0.6c-3.7,6.1-7.9,12-10.2,14.6c-2.6,3-14.2,8.8-18.1,10.9c-3.9,2-11.1,6-13.4,7.8
	c-2.3,1.8-12.2,16.9-14.4,19.8c-3.7,4.9-6.7,6.1-9.4,7.9c-2.8,1.8-4.8,2.3-7.9,3.9c-3.1,1.6-9.2,2.9-9.2,2.9
	c0.6-0.3,12.4-4.3,20.9-12.3c-1.5,0.3-1.7-1-1.8-1.1c0-0.1-0.1-0.2-0.2-0.3c-0.4-0.7-1.6-1.9-2.4-2.8c-0.2-0.2-0.4-0.5-0.6-0.6
	c-0.2-0.3-0.6-0.6-0.9-0.9c-0.7-0.7-1.7-1.6-2.5-3.2c-1.2-2.4-1.2-4.3-2.7-6.8c-0.6-0.9-1.8,0.4-1.8,0.4s-0.9-7.5-1.9-7.7
	c-0.5-0.1-1.1,0.9-1.1,0.9s-0.3-8-1.9-8.1c-0.8-0.1-1.2,0.9-1.4,1.4c-0.1,0.2-0.1,0.4-0.1,0.4s-0.2-1.5-0.5-3.3
	c-0.5-2.3-1.2-5.1-2.2-5.4c-0.6-0.2-1.2,1.2-1.2,1.3c0,0-0.1-0.3-0.1-0.5c-0.3-1.1-1.2-4.7-1.5-5.5c-0.2-0.5-0.8-1.7-1.8-0.9
	c-0.3,0.3-0.7,1.9-0.7,1.9c-0.2-1.1-0.9-4.6-1.3-5.7c-1.1-3.4-2.4-4.8-3.3-5.5c-0.7-0.4-1.1,0.1-1.3,0.7c-0.2,1.1-0.3,4-0.5,6.3
	c-0.4-1.5-0.9-3.1-2.2-6.6c-1.2-3.4-3.1-6.8-5-7.2c-0.9-0.2-0.7,1.8-0.6,2.5c0.2,0.8,0.4,3.5,0.3,4.2c-0.2-0.5-3.4-8.1-6-10.7
	c-1.1-1.1-4.1-3.2-4.8-1.9c-0.3,0.5,1.3,3.3,1.4,3.6c1.6,4.1,2.1,8.4,2.3,9.4c-2.1-4.1-2.4-4.6-7.9-10.8c-1.7-1.9-5-3-5.7-1.8
	c-0.5,0.8,2.3,3.9,3,5.3c1.9,3.8,1.3,10.3,2.9,15.5c0.4,1.2,4.1,14.3,5.1,17.6c1.4,4.7,9.6,15.3,15,24.3c0.4,0.7,0.8,1.4,1.2,2.1
	c2,3.5,3.4,6.7,3.5,9c0.1,2-1.8,3.9-5.5,4.2c-3,0.2-7.3-0.3-11.4-1.1c-4.2-0.7-10.7-3.1-12.2-3.6c-5.5-1.9-9.7-3.7-16.2-6.8
	c-5.7-2.7-8.4-4.2-10.1-5.3c-1.4-1-7-3.2-11.5-1.6c-0.4,0.2-1.1,0.6-1.4,0.9c0,0,0,0,0,0s-0.2,0.1-0.3,0.4c0,0,0,0.2,0,0.2l0,0l0,0
	c0,0,0,0,0,0c0,0.2,0.8,0.5,1.3,1.2c0.5,0.6,1.5,1.3,1.6,1.4c0.2,0.1,0.6,0.1,0.8,0.1c0.4,0,0.8-0.1,1.1,0c0.4,0.1,0.7,0.5,0.7,0.5
	s-0.3,0.5-0.8,0.4c-0.5-0.1-0.8-0.4-0.8-0.4s-0.8,0.3-1,0.5c-0.7,0.5-1,1.3-1.3,1.6c-0.3,0.3-0.7,0.7-1.1,0.9v0
	c-0.1,0.1-0.2,0.1-0.4,0.2c0,0,0,0-0.1,0c-0.2,0.1-0.3,0.1-0.5,0.2l-0.3,0.1l0.8,0.2c1.9,1.2,5.8,0.8,10,0.7
	c2.5-0.1,8.8,3.3,10.8,4.3c2.6,1.3,10.2,4.5,11.4,5c5.2,2.3,12.2,5.8,15.1,6.9c2.9,1.1,9.4,3,12.4,3.7c5.2,1.2,8.1,2.5,11.6,3.1
	c2.2,0.4,4.2,0.7,5.8,1.5c1.4,0.8,9.9,5.2,12.6,6.8c3.3,1.9,9,4.6,11,5.2c1.3,0.4,6.2,1.7,9.1,2.2c2.9,0.6,13.5,2.2,16.5,1.9
	c3-0.3,6.9-1.6,9.4-0.4c1.1,0.5,3.9,1.2,6.3,1.2c0.8,0,2.7,0.8,4.5,1.7c0.3,0.1,0.5,0.3,0.8,0.4c1.2,0.7,2.3,1.4,2.9,2.1
	c1.3,1.3,0.8,3.5,1.6,3.6c0.1-0.1,0.2-0.8,0.2-1.6c0-1.3,0.1-2.1,0.1-2.5c0-0.2,0-0.4,0-0.5c0,0,0-0.1,0-0.1c0-0.5,0-0.9-0.1-1.3
	c0,0,0-0.1,0-0.1c-0.1-0.6-0.2-1.2-0.3-1.5c0-0.1-0.1-0.3-0.1-0.4c-0.1-0.6,1-4.2-0.6-4.3c-0.7,0,0.8-1.9-1.3-2.2
	c-0.9-0.1,0.3-1.5,0-2.3c-0.2-0.6-1.6-1.1-2.2-1.2c-1.9-0.3-1.2-2-2.5-2.7c-0.3-0.2-4.6,0.1-5,0.2c-1.3,0.4-2.1-0.3-9.3-5
	c-1.7-1.1-3.8-2.6-4.9-3.7c-0.5-0.5-0.9-0.9-0.9-1c0,0,0,0,0,0c0.7-0.2,1.5-0.5,2.2-0.8c0.6-0.3,2.3-1.2,2.3-2.2
	c0-0.1-0.1-0.2-0.2-0.4c-0.3-0.3-0.9-0.7-0.9-0.7s0.1,0,0.2-0.1c0.6-0.2,2.3-0.8,2.8-1c0.9-0.4,1.7-1.2,1.4-1.4
	c-0.1-0.1-0.1-0.1-0.2-0.1c-0.7-0.5-1.1-0.6-1.1-0.6s0.1,0,0.2,0c1.1-0.2,6.2-1.4,5.5-3c-0.1-0.3-0.6-0.6-0.6-0.6h0
	c-0.2-0.1-0.1-0.1,0,0c0.1,0,6.8-1.9,6.5-2.7c-0.2-0.5-1.9-1-1.9-1s4.2-1.3,4.9-1.7c3.7-1.7,4.5-2.2,3.6-2.9
	c-0.4-0.3-1.4-0.6-1.4-0.6s12.3-4.8,12.5-7.6c0-0.3-0.3-0.5-0.7-0.6c-0.8-0.1-1.5,0-1.5,0s4.3-2,7.1-5.7c0.6-0.9,0.8-2-0.4-1.9
	c-0.7,0.1-4.1,1.3-4.1,1.3s4.4-2.6,5.7-4.1c0.9-1,2.6-2.7,2.5-5c0-0.5-0.5-0.4-1.2-0.2c-0.1,0-0.1,0.1-0.2,0.1
	c-0.6,0.2-1.8,0.8-2.1,0.9c-1.3,0.6-3.8,1.5-3.8,1.5S354.6,394.4,354.7,394.3L354.7,394.3"/>
<g>
	<path class="st0" d="M188.8,481l-3.8,0.1c-1.5,0.1-2.1,0.2-2.5,0.7c-0.3,0.4-0.4,0.7-0.4,0.9c-0.1,0.2-0.1,0.3-0.3,0.3
		c-0.2,0-0.2-0.1-0.2-0.4c0-0.4,0.5-2.7,0.5-2.9c0.1-0.3,0.2-0.5,0.3-0.5c0.2,0,0.5,0.3,1.1,0.3c0.7,0.1,1.7,0.1,2.6,0.1h10.1
		c0.8,0,1.4-0.1,1.8-0.1c0.4-0.1,0.6-0.1,0.7-0.1c0.2,0,0.2,0.2,0.2,0.5c0,0.5-0.1,2.3-0.1,3c0,0.3-0.1,0.4-0.2,0.4
		c-0.2,0-0.3-0.1-0.3-0.5l0-0.3c-0.1-0.7-0.7-1.4-3-1.4L192,481v10.5c0,2.4,0,4.4,0.1,5.5c0.1,0.7,0.2,1.3,1,1.4
		c0.4,0.1,0.9,0.1,1.3,0.1c0.3,0,0.4,0.1,0.4,0.2c0,0.2-0.2,0.3-0.5,0.3c-1.7,0-3.3-0.1-4-0.1c-0.6,0-2.2,0.1-3.2,0.1
		c-0.3,0-0.5-0.1-0.5-0.3c0-0.1,0.1-0.2,0.4-0.2c0.4,0,0.7-0.1,0.9-0.1c0.5-0.1,0.7-0.7,0.7-1.4c0.1-1.1,0.1-3.1,0.1-5.4V481z"/>
	<path class="st0" d="M220.5,487.7c0.1,0,0.2-0.1,0.2-0.2V487c0-3.9,0-4.6-0.1-5.4c-0.1-0.9-0.3-1.3-1.1-1.5c-0.2-0.1-0.6-0.1-1-0.1
		c-0.3,0-0.4-0.1-0.4-0.2c0-0.2,0.2-0.2,0.5-0.2c1.4,0,3,0.1,3.7,0.1c0.6,0,2.2-0.1,3.2-0.1c0.4,0,0.5,0.1,0.5,0.2
		c0,0.2-0.2,0.2-0.5,0.2c-0.2,0-0.4,0-0.7,0.1c-0.7,0.1-0.9,0.6-0.9,1.5c-0.1,0.8-0.1,1.5-0.1,5.4v4.5c0,2.4,0,4.4,0.1,5.5
		c0.1,0.7,0.2,1.3,1,1.4c0.4,0.1,0.9,0.1,1.3,0.1c0.3,0,0.4,0.1,0.4,0.2c0,0.2-0.2,0.3-0.5,0.3c-1.7,0-3.3-0.1-4-0.1
		c-0.6,0-2.2,0.1-3.2,0.1c-0.4,0-0.5-0.1-0.5-0.3c0-0.1,0.1-0.2,0.4-0.2c0.4,0,0.7-0.1,0.9-0.1c0.5-0.1,0.6-0.7,0.7-1.4
		c0.1-1.1,0.1-3.1,0.1-5.4v-2.2c0-0.1-0.1-0.2-0.2-0.2h-9.8c-0.1,0-0.2,0-0.2,0.2v2.2c0,2.4,0,4.4,0.1,5.5c0.1,0.7,0.2,1.3,1,1.4
		c0.4,0.1,0.9,0.1,1.3,0.1c0.3,0,0.4,0.1,0.4,0.2c0,0.2-0.2,0.3-0.5,0.3c-1.7,0-3.3-0.1-4-0.1c-0.6,0-2.2,0.1-3.2,0.1
		c-0.3,0-0.5-0.1-0.5-0.3c0-0.1,0.1-0.2,0.4-0.2c0.4,0,0.7-0.1,0.9-0.1c0.5-0.1,0.6-0.7,0.7-1.4c0.1-1.1,0.1-3.1,0.1-5.4V487
		c0-3.9,0-4.6-0.1-5.4c-0.1-0.9-0.3-1.3-1.1-1.5c-0.2-0.1-0.6-0.1-1-0.1c-0.3,0-0.4-0.1-0.4-0.2c0-0.2,0.2-0.2,0.5-0.2
		c1.4,0,3,0.1,3.7,0.1c0.6,0,2.2-0.1,3.2-0.1c0.4,0,0.5,0.1,0.5,0.2c0,0.2-0.2,0.2-0.5,0.2c-0.2,0-0.4,0-0.7,0.1
		c-0.7,0.1-0.9,0.6-0.9,1.5c-0.1,0.8-0.1,1.5-0.1,5.4v0.5c0,0.1,0.1,0.2,0.2,0.2H220.5z"/>
	<path class="st0" d="M236.1,487c0-3.9,0-4.6-0.1-5.4c-0.1-0.9-0.3-1.3-1.1-1.5c-0.2-0.1-0.6-0.1-1-0.1c-0.3,0-0.4-0.1-0.4-0.2
		c0-0.2,0.2-0.2,0.6-0.2c1.4,0,3,0.1,3.7,0.1c0.8,0,5.9,0,6.4,0c0.5-0.1,0.9-0.1,1.1-0.2c0.1,0,0.3-0.1,0.4-0.1s0.2,0.1,0.2,0.2
		c0,0.2-0.1,0.5-0.2,1.7c0,0.3-0.1,1.4-0.1,1.7c0,0.1-0.1,0.3-0.3,0.3c-0.2,0-0.2-0.1-0.2-0.4c0-0.2,0-0.6-0.2-0.9
		c-0.2-0.5-0.4-0.8-1.7-0.9c-0.4-0.1-3.1-0.1-3.6-0.1c-0.1,0-0.2,0.1-0.2,0.3v6.5c0,0.2,0,0.3,0.2,0.3c0.6,0,3.5,0,4.1-0.1
		c0.6-0.1,1-0.1,1.2-0.4c0.2-0.2,0.3-0.3,0.4-0.3c0.1,0,0.2,0.1,0.2,0.2c0,0.2-0.1,0.6-0.2,1.9c-0.1,0.5-0.1,1.5-0.1,1.7
		c0,0.2,0,0.5-0.2,0.5c-0.2,0-0.2-0.1-0.2-0.2c0-0.3,0-0.6-0.1-0.9c-0.1-0.5-0.5-0.9-1.4-1c-0.5-0.1-3-0.1-3.6-0.1
		c-0.1,0-0.2,0.1-0.2,0.3v2c0,0.9,0,3.2,0,4c0.1,1.8,0.5,2.1,3.1,2.1c0.7,0,1.7,0,2.4-0.3c0.7-0.3,1-0.8,1.2-1.9
		c0.1-0.3,0.1-0.4,0.3-0.4c0.2,0,0.2,0.2,0.2,0.5c0,0.6-0.2,2.3-0.3,2.8c-0.2,0.7-0.4,0.7-1.4,0.7c-3.9,0-5.6-0.2-7.1-0.2
		c-0.6,0-2.2,0.1-3.2,0.1c-0.3,0-0.5-0.1-0.5-0.3c0-0.1,0.1-0.2,0.4-0.2c0.4,0,0.7-0.1,0.9-0.1c0.5-0.1,0.6-0.7,0.7-1.4
		c0.1-1.1,0.1-3.1,0.1-5.4V487z"/>
	<path class="st0" d="M265.3,482.1c-0.3-0.9-0.6-1.6-0.9-1.8c-0.3-0.2-0.8-0.2-1-0.2c-0.3,0-0.4,0-0.4-0.2c0-0.2,0.2-0.2,0.6-0.2
		c1.3,0,2.7,0.1,3,0.1c0.2,0,1.4-0.1,2.8-0.1c0.4,0,0.5,0.1,0.5,0.2c0,0.2-0.2,0.2-0.5,0.2c-0.2,0-0.5,0-0.6,0.1
		c-0.2,0.1-0.3,0.3-0.3,0.6c0,0.3,0.3,1.2,0.6,2.4c0.4,1.7,2.8,9.4,3.3,10.9h0.1l5-13.3c0.3-0.7,0.4-0.9,0.6-0.9
		c0.3,0,0.4,0.4,0.7,1.2l5.3,12.9h0.1c0.5-1.7,2.5-8.5,3.4-11.5c0.2-0.6,0.3-1.1,0.3-1.5c0-0.4-0.2-0.8-1.2-0.8
		c-0.3,0-0.4-0.1-0.4-0.2c0-0.2,0.2-0.2,0.6-0.2c1.4,0,2.4,0.1,2.7,0.1c0.2,0,1.3-0.1,2.1-0.1c0.3,0,0.5,0.1,0.5,0.2
		c0,0.2-0.1,0.3-0.4,0.3c-0.3,0-0.6,0-0.9,0.1c-0.6,0.2-0.9,1.3-1.4,2.7c-1.2,3.2-3.9,11.3-5.1,15.2c-0.3,0.9-0.4,1.2-0.7,1.2
		c-0.3,0-0.4-0.3-0.8-1.3l-5.3-12.8h-0.1c-0.5,1.3-3.9,10.4-5,12.7c-0.5,1-0.6,1.4-0.9,1.4c-0.3,0-0.4-0.3-0.6-0.9L265.3,482.1z"/>
	<path class="st0" d="M299.1,487c0-3.9,0-4.6-0.1-5.4c-0.1-0.9-0.3-1.3-0.9-1.4c-0.3-0.1-0.6-0.1-0.9-0.1c-0.3,0-0.4-0.1-0.4-0.3
		c0-0.2,0.2-0.2,0.6-0.2c1,0,2.6,0.1,3.3,0.1c0.6,0,2.1-0.1,3.1-0.1c0.3,0,0.5,0.1,0.5,0.2c0,0.2-0.2,0.3-0.4,0.3
		c-0.3,0-0.5,0-0.8,0.1c-0.7,0.1-0.9,0.6-0.9,1.5c-0.1,0.8-0.1,1.5-0.1,5.4v4.5c0,2.5,0,4.5,0.1,5.6c0.1,0.7,0.3,1.2,1,1.3
		c0.4,0.1,0.9,0.1,1.3,0.1c0.3,0,0.4,0.1,0.4,0.2c0,0.2-0.2,0.3-0.5,0.3c-1.7,0-3.3-0.1-4-0.1c-0.6,0-2.2,0.1-3.2,0.1
		c-0.3,0-0.5-0.1-0.5-0.3c0-0.1,0.1-0.2,0.4-0.2c0.4,0,0.7-0.1,0.9-0.1c0.5-0.1,0.7-0.5,0.7-1.3c0.1-1.1,0.1-3.1,0.1-5.6V487z"/>
	<path class="st0" d="M313.1,498.6c-0.4-0.2-0.5-0.3-0.5-0.9c0-1.4,0.1-2.9,0.1-3.3c0-0.4,0.1-0.7,0.3-0.7c0.2,0,0.3,0.2,0.3,0.4
		c0,0.3,0.1,0.9,0.2,1.3c0.6,1.9,2.1,2.6,3.7,2.6c2.3,0,3.4-1.6,3.4-2.9c0-1.3-0.4-2.5-2.5-4.1l-1.2-0.9c-2.8-2.2-3.8-4-3.8-6.1
		c0-2.8,2.4-4.8,5.9-4.8c1.7,0,2.7,0.3,3.4,0.4c0.2,0.1,0.4,0.1,0.4,0.3c0,0.3-0.1,1.1-0.1,3.1c0,0.6-0.1,0.8-0.3,0.8
		c-0.2,0-0.3-0.2-0.3-0.5c0-0.2-0.1-1-0.7-1.7c-0.4-0.5-1.1-1.3-2.8-1.3c-1.9,0-3,1.1-3,2.6c0,1.2,0.6,2.1,2.7,3.7l0.7,0.5
		c3.1,2.4,4.2,4.1,4.2,6.5c0,1.5-0.6,3.2-2.4,4.4c-1.3,0.8-2.7,1-4.1,1C315.4,499.2,314.2,499.1,313.1,498.6z"/>
	<path class="st0" d="M336.4,491.5c0,3.3,0,5,0.5,5.5c0.4,0.4,1.1,0.6,3.1,0.6c1.4,0,2.4,0,3-0.7c0.3-0.3,0.6-1,0.7-1.5
		c0-0.2,0.1-0.4,0.3-0.4c0.2,0,0.2,0.1,0.2,0.4c0,0.3-0.2,2.2-0.4,2.9c-0.2,0.6-0.3,0.7-1.6,0.7c-3.7,0-5.4-0.2-7.4-0.2
		c-0.6,0-2.2,0.1-3.2,0.1c-0.3,0-0.5-0.1-0.5-0.3c0-0.1,0.1-0.2,0.4-0.2c0.4,0,0.7-0.1,0.9-0.1c0.5-0.1,0.6-0.7,0.7-1.4
		c0.1-1.1,0.1-3.1,0.1-5.4V487c0-3.9,0-4.6-0.1-5.4c-0.1-0.9-0.3-1.3-1.1-1.5c-0.2-0.1-0.5-0.1-0.8-0.1c-0.3,0-0.4-0.1-0.4-0.2
		c0-0.2,0.2-0.2,0.6-0.2c1.2,0,2.8,0.1,3.5,0.1c0.6,0,2.5-0.1,3.5-0.1c0.4,0,0.5,0.1,0.5,0.2c0,0.2-0.2,0.2-0.5,0.2
		c-0.3,0-0.7,0-1,0.1c-0.7,0.1-0.9,0.6-0.9,1.5c-0.1,0.8-0.1,1.5-0.1,5.4V491.5z"/>
	<path class="st0" d="M352.5,487c0-3.9,0-4.6-0.1-5.4c-0.1-0.9-0.3-1.3-1.1-1.5c-0.2-0.1-0.6-0.1-1-0.1c-0.3,0-0.4-0.1-0.4-0.2
		c0-0.2,0.2-0.2,0.6-0.2c1.4,0,3,0.1,3.7,0.1c0.8,0,5.9,0,6.4,0c0.5-0.1,0.9-0.1,1.1-0.2c0.1,0,0.3-0.1,0.4-0.1s0.2,0.1,0.2,0.2
		c0,0.2-0.1,0.5-0.2,1.7c0,0.3-0.1,1.4-0.1,1.7c0,0.1-0.1,0.3-0.3,0.3c-0.2,0-0.2-0.1-0.2-0.4c0-0.2,0-0.6-0.2-0.9
		c-0.2-0.5-0.4-0.8-1.7-0.9c-0.4-0.1-3.1-0.1-3.6-0.1c-0.1,0-0.2,0.1-0.2,0.3v6.5c0,0.2,0,0.3,0.2,0.3c0.6,0,3.5,0,4.1-0.1
		c0.6-0.1,1-0.1,1.2-0.4c0.2-0.2,0.3-0.3,0.4-0.3c0.1,0,0.2,0.1,0.2,0.2c0,0.2-0.1,0.6-0.2,1.9c-0.1,0.5-0.1,1.5-0.1,1.7
		c0,0.2,0,0.5-0.2,0.5c-0.2,0-0.2-0.1-0.2-0.2c0-0.3,0-0.6-0.1-0.9c-0.1-0.5-0.5-0.9-1.4-1c-0.5-0.1-3-0.1-3.6-0.1
		c-0.1,0-0.2,0.1-0.2,0.3v2c0,0.9,0,3.2,0,4c0.1,1.8,0.5,2.1,3.1,2.1c0.7,0,1.7,0,2.4-0.3c0.7-0.3,1-0.8,1.2-1.9
		c0.1-0.3,0.1-0.4,0.3-0.4c0.2,0,0.2,0.2,0.2,0.5c0,0.6-0.2,2.3-0.3,2.8c-0.2,0.7-0.4,0.7-1.4,0.7c-3.9,0-5.6-0.2-7.1-0.2
		c-0.6,0-2.2,0.1-3.2,0.1c-0.3,0-0.5-0.1-0.5-0.3c0-0.1,0.1-0.2,0.4-0.2c0.4,0,0.7-0.1,0.9-0.1c0.5-0.1,0.6-0.7,0.7-1.4
		c0.1-1.1,0.1-3.1,0.1-5.4V487z"/>
	<path class="st0" d="M375.7,492.3c0-1.4-0.3-1.9-0.6-2.7c-0.2-0.4-3.6-6-4.5-7.4c-0.6-0.9-1.3-1.6-1.8-1.9
		c-0.3-0.2-0.8-0.3-1.1-0.3c-0.2,0-0.4-0.1-0.4-0.2c0-0.2,0.2-0.2,0.5-0.2c0.5,0,2.4,0.1,3.2,0.1c0.5,0,1.6-0.1,2.7-0.1
		c0.3,0,0.4,0.1,0.4,0.2c0,0.2-0.2,0.2-0.6,0.3c-0.2,0.1-0.4,0.3-0.4,0.5c0,0.2,0.1,0.5,0.3,0.9c0.4,0.8,3.9,6.9,4.3,7.6
		c0.3-0.6,3.5-6.2,3.8-7c0.3-0.6,0.4-1,0.4-1.3c0-0.3-0.1-0.5-0.5-0.6c-0.2-0.1-0.5-0.1-0.5-0.3c0-0.2,0.1-0.2,0.4-0.2
		c0.8,0,1.7,0.1,2.4,0.1c0.6,0,2.2-0.1,2.7-0.1c0.3,0,0.5,0.1,0.5,0.2c0,0.2-0.2,0.3-0.5,0.3c-0.3,0-0.7,0.1-1.1,0.3
		c-0.5,0.3-0.8,0.6-1.4,1.3c-0.8,1-4.4,7-4.9,8.1c-0.4,0.9-0.4,1.7-0.4,2.6v2.1c0,0.4,0,1.5,0.1,2.6c0.1,0.7,0.3,1.3,1,1.4
		c0.4,0.1,0.9,0.1,1.3,0.1c0.3,0,0.4,0.1,0.4,0.2c0,0.2-0.2,0.3-0.5,0.3c-1.6,0-3.2-0.1-3.9-0.1c-0.6,0-2.2,0.1-3.2,0.1
		c-0.4,0-0.6-0.1-0.6-0.3c0-0.1,0.1-0.2,0.4-0.2c0.4,0,0.7-0.1,0.9-0.1c0.5-0.1,0.7-0.7,0.8-1.4c0.1-1.1,0.1-2.1,0.1-2.6V492.3z"/>
</g>
</svg>
